<mxfile host="app.diagrams.net" modified="2024-03-06T17:45:13.277Z" agent="Mozilla/5.0 (Windows NT 10.0; Win64; x64; rv:123.0) Gecko/20100101 Firefox/123.0" etag="PL9b4c5LiJbsCZOzXJSu" version="22.1.18" type="device">
  <diagram name="Page-1" id="FruJOiEggTtfJFegrwPw">
    <mxGraphModel dx="1682" dy="781" grid="1" gridSize="10" guides="1" tooltips="1" connect="1" arrows="1" fold="1" page="1" pageScale="1" pageWidth="850" pageHeight="1100" math="0" shadow="0">
      <root>
        <mxCell id="0" />
        <mxCell id="1" parent="0" />
        <mxCell id="Q_NeCmUaw1M0BbEt7GpI-16" style="edgeStyle=orthogonalEdgeStyle;rounded=0;orthogonalLoop=1;jettySize=auto;html=1;" edge="1" parent="1" source="Q_NeCmUaw1M0BbEt7GpI-2" target="Q_NeCmUaw1M0BbEt7GpI-4">
          <mxGeometry relative="1" as="geometry" />
        </mxCell>
        <mxCell id="Q_NeCmUaw1M0BbEt7GpI-2" value="Start" style="ellipse;whiteSpace=wrap;html=1;" vertex="1" parent="1">
          <mxGeometry x="320" y="100" width="120" height="80" as="geometry" />
        </mxCell>
        <mxCell id="Q_NeCmUaw1M0BbEt7GpI-3" value="Koniec" style="ellipse;whiteSpace=wrap;html=1;" vertex="1" parent="1">
          <mxGeometry x="790" y="540" width="120" height="80" as="geometry" />
        </mxCell>
        <mxCell id="Q_NeCmUaw1M0BbEt7GpI-18" style="edgeStyle=orthogonalEdgeStyle;rounded=0;orthogonalLoop=1;jettySize=auto;html=1;entryX=0.5;entryY=0;entryDx=0;entryDy=0;" edge="1" parent="1" source="Q_NeCmUaw1M0BbEt7GpI-4" target="Q_NeCmUaw1M0BbEt7GpI-5">
          <mxGeometry relative="1" as="geometry" />
        </mxCell>
        <mxCell id="Q_NeCmUaw1M0BbEt7GpI-4" value="Podaj email" style="shape=parallelogram;perimeter=parallelogramPerimeter;whiteSpace=wrap;html=1;fixedSize=1;" vertex="1" parent="1">
          <mxGeometry x="320" y="240" width="120" height="60" as="geometry" />
        </mxCell>
        <mxCell id="Q_NeCmUaw1M0BbEt7GpI-17" style="edgeStyle=orthogonalEdgeStyle;rounded=0;orthogonalLoop=1;jettySize=auto;html=1;entryX=0;entryY=0.5;entryDx=0;entryDy=0;" edge="1" parent="1" source="Q_NeCmUaw1M0BbEt7GpI-5" target="Q_NeCmUaw1M0BbEt7GpI-4">
          <mxGeometry relative="1" as="geometry">
            <Array as="points">
              <mxPoint x="230" y="410" />
              <mxPoint x="230" y="270" />
            </Array>
          </mxGeometry>
        </mxCell>
        <mxCell id="Q_NeCmUaw1M0BbEt7GpI-19" style="edgeStyle=orthogonalEdgeStyle;rounded=0;orthogonalLoop=1;jettySize=auto;html=1;entryX=0;entryY=0.5;entryDx=0;entryDy=0;" edge="1" parent="1" source="Q_NeCmUaw1M0BbEt7GpI-5" target="Q_NeCmUaw1M0BbEt7GpI-8">
          <mxGeometry relative="1" as="geometry">
            <Array as="points">
              <mxPoint x="480" y="410" />
              <mxPoint x="480" y="270" />
            </Array>
          </mxGeometry>
        </mxCell>
        <mxCell id="Q_NeCmUaw1M0BbEt7GpI-5" value="Czy email istnieje w bazie danych?" style="rhombus;whiteSpace=wrap;html=1;" vertex="1" parent="1">
          <mxGeometry x="310" y="340" width="140" height="140" as="geometry" />
        </mxCell>
        <mxCell id="Q_NeCmUaw1M0BbEt7GpI-6" value="&lt;font style=&quot;font-size: 20px;&quot;&gt;Rejestracja&lt;/font&gt;" style="text;html=1;strokeColor=none;fillColor=none;align=center;verticalAlign=middle;whiteSpace=wrap;rounded=0;" vertex="1" parent="1">
          <mxGeometry x="550" y="121.43" width="120" height="68.57" as="geometry" />
        </mxCell>
        <mxCell id="Q_NeCmUaw1M0BbEt7GpI-27" style="edgeStyle=orthogonalEdgeStyle;rounded=0;orthogonalLoop=1;jettySize=auto;html=1;entryX=0.5;entryY=0;entryDx=0;entryDy=0;" edge="1" parent="1" source="Q_NeCmUaw1M0BbEt7GpI-8" target="Q_NeCmUaw1M0BbEt7GpI-10">
          <mxGeometry relative="1" as="geometry" />
        </mxCell>
        <mxCell id="Q_NeCmUaw1M0BbEt7GpI-8" value="Podaj login" style="shape=parallelogram;perimeter=parallelogramPerimeter;whiteSpace=wrap;html=1;fixedSize=1;" vertex="1" parent="1">
          <mxGeometry x="560" y="240" width="120" height="60" as="geometry" />
        </mxCell>
        <mxCell id="Q_NeCmUaw1M0BbEt7GpI-30" style="edgeStyle=orthogonalEdgeStyle;rounded=0;orthogonalLoop=1;jettySize=auto;html=1;entryX=0.5;entryY=0;entryDx=0;entryDy=0;" edge="1" parent="1" source="Q_NeCmUaw1M0BbEt7GpI-9" target="Q_NeCmUaw1M0BbEt7GpI-11">
          <mxGeometry relative="1" as="geometry" />
        </mxCell>
        <mxCell id="Q_NeCmUaw1M0BbEt7GpI-9" value="Podaj hasło" style="shape=parallelogram;perimeter=parallelogramPerimeter;whiteSpace=wrap;html=1;fixedSize=1;" vertex="1" parent="1">
          <mxGeometry x="790" y="240" width="120" height="60" as="geometry" />
        </mxCell>
        <mxCell id="Q_NeCmUaw1M0BbEt7GpI-23" style="edgeStyle=orthogonalEdgeStyle;rounded=0;orthogonalLoop=1;jettySize=auto;html=1;entryX=0;entryY=0.5;entryDx=0;entryDy=0;" edge="1" parent="1" source="Q_NeCmUaw1M0BbEt7GpI-10" target="Q_NeCmUaw1M0BbEt7GpI-9">
          <mxGeometry relative="1" as="geometry">
            <Array as="points">
              <mxPoint x="740" y="410" />
              <mxPoint x="740" y="270" />
            </Array>
          </mxGeometry>
        </mxCell>
        <mxCell id="Q_NeCmUaw1M0BbEt7GpI-24" style="edgeStyle=orthogonalEdgeStyle;rounded=0;orthogonalLoop=1;jettySize=auto;html=1;entryX=0;entryY=0.75;entryDx=0;entryDy=0;" edge="1" parent="1" source="Q_NeCmUaw1M0BbEt7GpI-10" target="Q_NeCmUaw1M0BbEt7GpI-8">
          <mxGeometry relative="1" as="geometry">
            <Array as="points">
              <mxPoint x="520" y="410" />
              <mxPoint x="520" y="284" />
            </Array>
          </mxGeometry>
        </mxCell>
        <mxCell id="Q_NeCmUaw1M0BbEt7GpI-10" value="Czy login istenieje w bazie danych?" style="rhombus;whiteSpace=wrap;html=1;" vertex="1" parent="1">
          <mxGeometry x="550" y="340" width="140" height="140" as="geometry" />
        </mxCell>
        <mxCell id="Q_NeCmUaw1M0BbEt7GpI-31" style="edgeStyle=orthogonalEdgeStyle;rounded=0;orthogonalLoop=1;jettySize=auto;html=1;" edge="1" parent="1" source="Q_NeCmUaw1M0BbEt7GpI-11" target="Q_NeCmUaw1M0BbEt7GpI-3">
          <mxGeometry relative="1" as="geometry" />
        </mxCell>
        <mxCell id="Q_NeCmUaw1M0BbEt7GpI-11" value="Czy hasło jest wystarczająco bezpieczne?" style="rhombus;whiteSpace=wrap;html=1;" vertex="1" parent="1">
          <mxGeometry x="780" y="350" width="140" height="140" as="geometry" />
        </mxCell>
        <mxCell id="Q_NeCmUaw1M0BbEt7GpI-29" style="edgeStyle=orthogonalEdgeStyle;rounded=0;orthogonalLoop=1;jettySize=auto;html=1;entryX=0;entryY=0.75;entryDx=0;entryDy=0;" edge="1" parent="1">
          <mxGeometry relative="1" as="geometry">
            <mxPoint x="780" y="420" as="sourcePoint" />
            <mxPoint x="795" y="280" as="targetPoint" />
            <Array as="points">
              <mxPoint x="780" y="420" />
              <mxPoint x="750" y="420" />
              <mxPoint x="750" y="280" />
            </Array>
          </mxGeometry>
        </mxCell>
        <mxCell id="Q_NeCmUaw1M0BbEt7GpI-32" value="Tak" style="text;html=1;strokeColor=none;fillColor=none;align=center;verticalAlign=middle;whiteSpace=wrap;rounded=0;" vertex="1" parent="1">
          <mxGeometry x="180" y="320" width="60" height="30" as="geometry" />
        </mxCell>
        <mxCell id="Q_NeCmUaw1M0BbEt7GpI-33" value="Tak" style="text;html=1;strokeColor=none;fillColor=none;align=center;verticalAlign=middle;whiteSpace=wrap;rounded=0;" vertex="1" parent="1">
          <mxGeometry x="520" y="320" width="60" height="30" as="geometry" />
        </mxCell>
        <mxCell id="Q_NeCmUaw1M0BbEt7GpI-37" value="Tak" style="text;html=1;strokeColor=none;fillColor=none;align=center;verticalAlign=middle;whiteSpace=wrap;rounded=0;" vertex="1" parent="1">
          <mxGeometry x="750" y="320" width="60" height="30" as="geometry" />
        </mxCell>
        <mxCell id="Q_NeCmUaw1M0BbEt7GpI-38" value="Nie" style="text;html=1;strokeColor=none;fillColor=none;align=center;verticalAlign=middle;whiteSpace=wrap;rounded=0;" vertex="1" parent="1">
          <mxGeometry x="420" y="320" width="60" height="30" as="geometry" />
        </mxCell>
        <mxCell id="Q_NeCmUaw1M0BbEt7GpI-39" value="Nie" style="text;html=1;strokeColor=none;fillColor=none;align=center;verticalAlign=middle;whiteSpace=wrap;rounded=0;" vertex="1" parent="1">
          <mxGeometry x="680" y="320" width="60" height="30" as="geometry" />
        </mxCell>
        <mxCell id="Q_NeCmUaw1M0BbEt7GpI-40" value="Nie" style="text;html=1;strokeColor=none;fillColor=none;align=center;verticalAlign=middle;whiteSpace=wrap;rounded=0;" vertex="1" parent="1">
          <mxGeometry x="850" y="490" width="60" height="30" as="geometry" />
        </mxCell>
      </root>
    </mxGraphModel>
  </diagram>
</mxfile>
